<svg id="组件_1_1" data-name="组件 1 – 1" xmlns="http://www.w3.org/2000/svg" width="42" height="42" viewBox="0 0 42 42">
  <g id="矩形_250" data-name="矩形 250" fill="none" stroke="#fff" stroke-width="2">
    <rect width="42" height="42" rx="21" stroke="none"/>
    <rect x="1" y="1" width="40" height="40" rx="20" fill="none"/>
  </g>
  <g id="组_243" data-name="组 243" transform="translate(-1847.253 49.802)">
    <path id="路径_669" data-name="路径 669" d="M1866.075-24.189c.02-4.071,1.228-5.311,3.27-6.561a4.254,4.254,0,0,0,2.325-3.6,3.172,3.172,0,0,0-3.38-3.181,3.319,3.319,0,0,0-3.466,3.346h-3.335c.141-3.95,3.1-6.111,6.8-6.111,4.027,0,6.728,2.414,6.728,5.98A5.9,5.9,0,0,1,1871.846-29c-1.865,1.153-2.59,2.283-2.632,4.806v.209h-3.139Zm-.539,4.686a2.2,2.2,0,0,1,2.195-2.184,2.207,2.207,0,0,1,2.2,2.184,2.2,2.2,0,0,1-2.2,2.194A2.193,2.193,0,0,1,1865.536-19.5Z" fill="#fff"/>
  </g>
</svg>
